<svg id="Layer_1" data-name="Layer 1" xmlns="http://www.w3.org/2000/svg" viewBox="0 0 375 156.03"><defs><style>.cls-1,.cls-10,.cls-11,.cls-12,.cls-15,.cls-16,.cls-17,.cls-22,.cls-23,.cls-4,.cls-7{fill:none;}.cls-1,.cls-10,.cls-2,.cls-4,.cls-5,.cls-7,.cls-9{stroke:#040406;}.cls-1,.cls-10,.cls-15,.cls-16,.cls-17,.cls-23{stroke-linecap:round;}.cls-1,.cls-17,.cls-18,.cls-2,.cls-22,.cls-5,.cls-7{stroke-linejoin:round;}.cls-18,.cls-2,.cls-20,.cls-9{fill:#fff;}.cls-3,.cls-5{fill:#f2f2f3;}.cls-10,.cls-11,.cls-12,.cls-13,.cls-14,.cls-15,.cls-16,.cls-20,.cls-21,.cls-23,.cls-4,.cls-9{stroke-miterlimit:10;}.cls-21,.cls-6{fill:#e0e0e0;}.cls-8{fill:#152935;}.cls-11{stroke:#f05253;}.cls-12,.cls-14{stroke:#4378bd;}.cls-13{fill:#f05253;stroke:#f05354;}.cls-14{fill:#4378bd;}.cls-15,.cls-17{stroke:#fff;}.cls-16{stroke:#e0e0e0;}.cls-18,.cls-20,.cls-21,.cls-22{stroke:#020202;}.cls-19{fill:#040406;}.cls-23{stroke:#152935;stroke-width:3px;}</style></defs><title>Artboard 156</title><line class="cls-1" y1="147.08" x2="375" y2="147.08"/><line class="cls-1" x1="12.26" y1="123.09" x2="81.45" y2="123.09"/><line class="cls-1" x1="12.26" y1="126.88" x2="81.45" y2="126.88"/><line class="cls-1" x1="12.26" y1="130.68" x2="81.45" y2="130.68"/><line class="cls-1" x1="12.26" y1="134.47" x2="81.45" y2="134.47"/><line class="cls-1" x1="12.26" y1="138.26" x2="81.45" y2="138.26"/><path class="cls-1" d="M79.23,147.08H6.73v-5.29H79.23a11.11,11.11,0,0,0,0-22.23H6.73v-5.29H79.23a16.41,16.41,0,0,1,0,32.81Z"/><line class="cls-1" x1="9.14" y1="119.56" x2="9.14" y2="141.79"/><path class="cls-1" d="M34.68,58H83.76a0,0,0,0,1,0,0v51.25a5,5,0,0,1-5,5H39.68a5,5,0,0,1-5-5V58A0,0,0,0,1,34.68,58Z"/><line class="cls-1" x1="34.89" y1="109.64" x2="83.54" y2="109.64"/><path class="cls-1" d="M34.68,91.94a9.83,9.83,0,0,1-9.82-9.81V76.76A3.75,3.75,0,0,1,28.6,73h6.08"/><path class="cls-1" d="M34.68,66.77H28.6a10,10,0,0,0-10,10v5.37A16.08,16.08,0,0,0,34.67,98.19"/><path class="cls-1" d="M335.26,70.89c4.35-12,9-23,11.78-26.11,6.68-7.41,16.59-9.62,16.59-9.62-1,4.3-6.13,21.5-11.49,38.2"/><path class="cls-1" d="M336.48,81.17c-1.83-17.26-5.48-40.73-9-46.5-5.4-8.82-17.35-16.5-17.35-16.5,2.68,6.08,6.2,24.84,9.07,42.74"/><path class="cls-1" d="M308.95,74.18c1.32,6,2.4,11.65,3.14,16.35"/><path class="cls-1" d="M324,77.21C320.11,61.69,313.83,43.77,306,37.86,292.9,28,295.18,31.6,295.18,31.6c4.13,6.82,8.38,20.35,11.72,33.82"/><path class="cls-1" d="M330.85,90.53C328,82.58,319.81,68.71,314,67a53.69,53.69,0,0,0-13.79-2.13c5.94,4.83,16,17.73,18.94,25.68"/><path class="cls-1" d="M354.95,73.19,341.5,74a130.35,130.35,0,0,0-10.58,16.49"/><path class="cls-1" d="M346.61,90.51c1.15-3,2.4-6.15,3.68-9"/><path class="cls-1" d="M341.5,74c3.89,4.9,17.54,12.86,20.81,17.41s5.55,7.49,5.55,7.49.57-11.33-3.13-16.45a45.86,45.86,0,0,0-9.78-9.28Z"/><path class="cls-1" d="M350.33,90.51H309.23c-4.44,3.21-7.62,7.9-7.62,13.11l-1.46,26a17.53,17.53,0,0,0,17.48,17.48h24.28A17.53,17.53,0,0,0,359.4,129.6l-1.46-26C357.94,98.41,354.76,93.72,350.33,90.51Z"/><path class="cls-2" d="M223.63,133.49h79.58V6.75A6.27,6.27,0,0,0,297,.5H107a6.11,6.11,0,0,0-6.09,6.09v126.9H180.5"/><path class="cls-3" d="M180.5,133.49v2.35a3,3,0,0,0,3,3h37a3,3,0,0,0,3-3v-2.35H295V23.33a6.09,6.09,0,0,0-6.09-6.09H114.09A6.09,6.09,0,0,0,108,23.33V133.49h72.5Z"/><circle class="cls-4" cx="202.07" cy="9.76" r="3.06"/><path class="cls-5" d="M223.63,133.49H295V16.84H108V133.49h72.5"/><path class="cls-5" d="M223.63,133.49H295V16.84H108V133.49h72.5"/><rect class="cls-6" x="108" y="17.24" width="187.02" height="4.54"/><path class="cls-7" d="M223.63,133.49H295V16.84H108V133.49h72.5"/><path class="cls-2" d="M223.63,133.49v2.35a3,3,0,0,1-3,3h-37a3,3,0,0,1-3-3v-2.35H86v13.59H318.12V133.49Z"/><rect class="cls-8" x="78.3" y="38.09" width="49.79" height="87.46" rx="1" ry="1"/><rect class="cls-9" x="73.8" y="20.5" width="58.78" height="117.83" rx="5" ry="5"/><circle class="cls-4" cx="103.19" cy="130.14" r="4.81"/><line class="cls-10" x1="96.83" y1="28.67" x2="109.56" y2="28.67"/><rect class="cls-5" x="78.3" y="36.84" width="49.79" height="85.12"/><rect class="cls-6" x="78.3" y="36.84" width="49.79" height="4.54"/><rect class="cls-7" x="78.3" y="36.84" width="49.79" height="85.12"/><circle class="cls-11" cx="92.13" cy="105.59" r="8.71"/><circle class="cls-12" cx="114.26" cy="105.59" r="8.71"/><circle class="cls-13" cx="92.13" cy="105.59" r="8.71"/><circle class="cls-14" cx="114.26" cy="105.59" r="8.71"/><line class="cls-15" x1="95.38" y1="102.34" x2="88.88" y2="108.84"/><line class="cls-16" x1="92.13" y1="57.04" x2="114.26" y2="57.04"/><line class="cls-16" x1="95.8" y1="78.06" x2="108.71" y2="78.06"/><line class="cls-16" x1="87.45" y1="64.49" x2="118.93" y2="64.49"/><line class="cls-15" x1="95.38" y1="108.84" x2="88.88" y2="102.34"/><polyline class="cls-17" points="110.94 105.71 113.3 108.07 118.25 103.12"/><rect class="cls-18" x="148.42" y="74.24" width="105.62" height="12.99"/><circle class="cls-19" cx="156.66" cy="80.74" r="1.87"/><circle class="cls-19" cx="167.59" cy="80.74" r="1.87"/><circle class="cls-19" cx="178.53" cy="80.74" r="1.87"/><circle class="cls-19" cx="189.47" cy="80.74" r="1.87"/><circle class="cls-19" cx="200.41" cy="80.74" r="1.87"/><rect class="cls-20" x="148.42" y="49.39" width="105.62" height="12.99"/><line class="cls-1" x1="154.78" y1="55.89" x2="226.97" y2="55.89"/><rect class="cls-21" x="205.13" y="99.09" width="49.47" height="12.99"/><rect class="cls-22" x="205.13" y="99.09" width="49.47" height="12.99"/><line class="cls-23" x1="75.8" y1="154.53" x2="130.59" y2="154.53"/><line class="cls-15" x1="65.79" y1="16.83" x2="65.79" y2="21.45"/><line class="cls-15" x1="65.79" y1="7.64" x2="65.79" y2="12.26"/><line class="cls-15" x1="63.5" y1="14.54" x2="58.88" y2="14.54"/><line class="cls-15" x1="72.69" y1="14.54" x2="68.08" y2="14.54"/><line class="cls-1" x1="144.96" y1="33.47" x2="144.96" y2="38.09"/><line class="cls-1" x1="144.96" y1="24.28" x2="144.96" y2="28.9"/><line class="cls-1" x1="142.67" y1="31.18" x2="138.05" y2="31.18"/><line class="cls-1" x1="151.87" y1="31.18" x2="147.25" y2="31.18"/><line class="cls-15" x1="58.5" y1="104.34" x2="58.5" y2="108.96"/><line class="cls-15" x1="58.5" y1="95.15" x2="58.5" y2="99.76"/><line class="cls-15" x1="56.21" y1="102.05" x2="51.59" y2="102.05"/><line class="cls-15" x1="65.4" y1="102.05" x2="60.78" y2="102.05"/></svg>